HIERARCHY
ROOT Hips
{
	OFFSET 0.000000 0.000000 0.000000
	CHANNELS 6 Xposition Yposition Zposition Zrotation Yrotation Xrotation
	JOINT LHipJoint
	{
		OFFSET 0.000000 0.000000 0.000000
		CHANNELS 3 Zrotation Yrotation Xrotation
		JOINT LeftUpLeg
		{
			OFFSET 0.076937 -0.101296 0.047373
			CHANNELS 3 Zrotation Yrotation Xrotation
			JOINT LeftLeg
			{
				OFFSET 0.138181 -0.379650 0.000000
				CHANNELS 3 Zrotation Yrotation Xrotation
				JOINT LeftFoot
				{
					OFFSET 0.144621 -0.397343 0.000000
					CHANNELS 3 Zrotation Yrotation Xrotation
					JOINT LeftToeBase
					{
						OFFSET 0.008898 -0.024446 0.131094
						CHANNELS 3 Zrotation Yrotation Xrotation
						End Site
						{
							OFFSET 0.000000 0.000000 0.000000
						}
					}
				}
			}
		}
	}
	JOINT RHipJoint
	{
		OFFSET 0.000000 0.000000 0.000000
		CHANNELS 3 Zrotation Yrotation Xrotation
		JOINT RightUpLeg
		{
			OFFSET -0.073689 -0.101296 0.047373
			CHANNELS 3 Zrotation Yrotation Xrotation
			JOINT RightLeg
			{
				OFFSET -0.143511 -0.394292 0.000000
				CHANNELS 3 Zrotation Yrotation Xrotation
				JOINT RightFoot
				{
					OFFSET -0.144963 -0.398282 0.000000
					CHANNELS 3 Zrotation Yrotation Xrotation
					JOINT RightToeBase
					{
						OFFSET -0.009298 -0.025546 0.133386
						CHANNELS 3 Zrotation Yrotation Xrotation
						End Site
						{
							OFFSET 0.000000 0.000000 0.000000
						}
					}
				}
			}
		}
	}
	JOINT LowerBack
	{
		OFFSET 0.000000 0.000000 0.000000
		CHANNELS 3 Zrotation Yrotation Xrotation
		JOINT Spine
		{
			OFFSET 0.001596 0.114897 -0.010915
			CHANNELS 3 Zrotation Yrotation Xrotation
			JOINT Spine1
			{
				OFFSET 0.003201 0.115645 -0.002413
				CHANNELS 3 Zrotation Yrotation Xrotation
				JOINT Neck
				{
					OFFSET 0.000000 0.000000 0.000000
					CHANNELS 3 Zrotation Yrotation Xrotation
					JOINT Neck1
					{
						OFFSET -0.003058 0.098565 0.009709
						CHANNELS 3 Zrotation Yrotation Xrotation
						JOINT Head
						{
							OFFSET 0.005874 0.099418 -0.006997
							CHANNELS 3 Zrotation Yrotation Xrotation
							End Site
							{
								OFFSET 0.000000 0.000000 0.000000
							}
						}
					}
				}
				JOINT LeftShoulder
				{
					OFFSET 0.000000 0.000000 0.000000
					CHANNELS 3 Zrotation Yrotation Xrotation
					JOINT LeftArm
					{
						OFFSET 0.189788 0.067783 -0.017566
						CHANNELS 3 Zrotation Yrotation Xrotation
						JOINT LeftForeArm
						{
							OFFSET 0.281260 -0.000000 -0.000000
							CHANNELS 3 Zrotation Yrotation Xrotation
							JOINT LeftHand
							{
								OFFSET 0.196626 -0.000000 -0.000000
								CHANNELS 3 Zrotation Yrotation Xrotation
								JOINT LeftFingerBase
								{
									OFFSET 0.000000 0.000000 0.000000
									CHANNELS 3 Zrotation Yrotation Xrotation
									JOINT LeftHandIndex1
									{
										OFFSET 0.040372 -0.000000 -0.000000
										CHANNELS 3 Zrotation Yrotation Xrotation
										End Site
										{
											OFFSET 0.000000 0.000000 0.000000
										}
									}
								}
								JOINT LThumb
								{
									OFFSET 0.000000 0.000000 0.000000
									CHANNELS 3 Zrotation Yrotation Xrotation
									End Site
									{
										OFFSET 0.000000 0.000000 0.000000
									}
								}
							}
						}
					}
				}
				JOINT RightShoulder
				{
					OFFSET 0.000000 0.000000 0.000000
					CHANNELS 3 Zrotation Yrotation Xrotation
					JOINT RightArm
					{
						OFFSET -0.177042 0.077557 -0.022840
						CHANNELS 3 Zrotation Yrotation Xrotation
						JOINT RightForeArm
						{
							OFFSET -0.295874 -0.000000 -0.000000
							CHANNELS 3 Zrotation Yrotation Xrotation
							JOINT RightHand
							{
								OFFSET -0.194403 -0.000000 -0.000000
								CHANNELS 3 Zrotation Yrotation Xrotation
								JOINT RightFingerBase
								{
									OFFSET 0.000000 0.000000 0.000000
									CHANNELS 3 Zrotation Yrotation Xrotation
									JOINT RightHandIndex1
									{
										OFFSET -0.035138 -0.000000 -0.000000
										CHANNELS 3 Zrotation Yrotation Xrotation
										End Site
										{
											OFFSET 0.000000 0.000000 0.000000
										}
									}
								}
								JOINT RThumb
								{
									OFFSET 0.000000 0.000000 0.000000
									CHANNELS 3 Zrotation Yrotation Xrotation
									End Site
									{
										OFFSET 0.000000 0.000000 0.000000
									}
								}
							}
						}
					}
				}
			}
		}
	}
}
MOTION
Frames: 8
Frame Time: 0.033333
22.686074 0.983987 -2.112466 -2.490118 80.907286 0.187211 -1.760592 23.219245 1.697248 -16.345405 0.025035 -13.521765 0.403606 1.796067 22.021045 24.679452 -7.340576 -3.251196 -6.035638 1.563533 -8.277063 -2.054263 -25.663555 0.892428 23.966037 -1.407549 -6.894143 -3.867225 -0.458553 19.331590 -29.267112 11.227741 -12.841839 6.369222 -4.673139 -9.129343 1.455964 1.844520 8.247420 0.128818 1.796186 19.631684 -4.748723 -0.196738 -40.828723 -3.814107 3.509741 -12.194775 7.823361 2.361160 21.041298 -0.808179 -1.250545 -3.163440 0.906569 34.492153 4.502509 -73.013447 -6.606040 55.146931 -3.236994 -25.756252 13.915279 3.195545 -7.013606 4.974036 -4.483892 15.347167 0.179332 0.002887 -0.011207 0.009912 0.001736 -0.010814 -0.005445 -0.110394 -40.685173 -3.612570 73.163279 1.096029 63.894351 2.946206 24.407922 16.520461 -4.368129 8.436672 7.909349 6.234077 -15.943247 -0.378038 -0.028157 -0.041109 0.026308 -0.009905 0.000905 0.008571 
22.686015 0.985306 -2.112619 -1.981763 80.770851 0.659208 -1.694481 23.383864 1.713148 -16.587231 0.282560 -13.156892 0.448022 1.766208 21.752829 24.798441 -7.483312 -4.004716 -5.942842 1.437736 -8.189134 -2.270881 -25.572534 1.045251 24.048483 -1.107985 -6.707179 -3.773198 -0.259269 19.050586 -29.401319 11.187900 -12.883703 6.296156 -4.618559 -9.040718 1.538290 1.602461 7.985487 -0.362467 1.528805 19.802407 -4.520597 0.052531 -41.116875 -3.739287 3.265193 -12.125615 7.795192 2.125685 21.184648 -0.838497 -1.336985 -3.103094 0.979428 35.117657 4.536667 -73.122819 -6.480203 55.107006 -3.333243 -25.361098 13.992950 2.999113 -7.230249 4.846492 -4.500371 15.322930 0.173300 0.002703 -0.010799 0.010069 0.002025 -0.010932 -0.005385 0.073566 -40.766007 -3.572155 73.115061 1.299055 64.022318 2.726808 23.955662 16.727737 -4.538082 8.175220 8.139313 6.241598 -15.971768 -0.377234 -0.028430 -0.040810 0.026808 -0.009984 0.000500 0.008908 
22.685985 0.985820 -2.112688 -1.974438 80.765368 0.654693 -1.647875 23.419481 1.675073 -16.671919 0.413796 -12.985073 0.431106 1.783469 21.695157 24.838362 -7.548371 -4.235641 -5.918378 1.408747 -8.161153 -2.333651 -25.542851 1.156998 24.081415 -0.933269 -6.669737 -3.713907 -0.193095 18.921536 -29.421388 11.108166 -12.850691 6.249564 -4.588550 -8.995323 1.607660 1.556923 7.844135 -0.554519 1.464572 19.849923 -4.461265 0.173673 -41.176069 -3.757615 3.432278 -12.103647 7.878337 2.260908 21.227947 -0.808820 -1.308459 -3.095562 1.000119 35.180830 4.579576 -73.198287 -6.441249 55.142132 -3.321913 -25.193296 14.012571 2.916145 -7.330177 4.784758 -4.527481 15.310126 0.168472 0.002610 -0.010613 0.010120 0.002008 -0.010836 -0.005297 0.177830 -40.864414 -3.565292 73.034002 1.352047 63.980917 2.627405 23.865440 16.763499 -4.608048 8.066738 8.206085 6.218345 -15.983459 -0.376332 -0.028448 -0.040870 0.026955 -0.009990 0.000394 0.008958 
22.685976 0.986023 -2.112715 -1.975659 80.762348 0.647018 -1.627534 23.432298 1.654107 -16.702897 0.476960 -12.907111 0.412972 1.805880 21.695692 24.850811 -7.570014 -4.309626 -5.910958 1.407845 -8.154202 -2.357443 -25.527069 1.212173 24.087783 -0.844682 -6.663123 -3.686502 -0.172982 18.867830 -29.419952 11.061661 -12.826165 6.228490 -4.575604 -8.973254 1.630017 1.533128 7.773999 -0.652903 1.431680 19.861003 -4.413660 0.247342 -41.178283 -3.760001 3.495499 -12.096643 7.915394 2.308870 21.241171 -0.797907 -1.303755 -3.094661 1.010282 35.201637 4.592012 -73.242754 -6.418174 55.158648 -3.310975 -25.127068 14.023012 2.874067 -7.387109 4.752247 -4.542682 15.300226 0.166784 0.002584 -0.010521 0.010151 0.001998 -0.010785 -0.005246 0.236502 -40.877113 -3.544874 72.976838 1.392530 63.928163 2.574815 23.846722 16.761586 -4.645102 8.011574 8.232009 6.197313 -15.987802 -0.375233 -0.028456 -0.040913 0.027019 -0.010000 0.000351 0.008950 
22.685974 0.986104 -2.112724 -1.978593 80.760747 0.640926 -1.618822 23.436936 1.642963 -16.715150 0.505330 -12.871239 0.400233 1.822283 21.709333 24.856890 -7.575207 -4.335170 -5.908143 1.411997 -8.153702 -2.367274 -25.518646 1.238399 24.087307 -0.801183 -6.664428 -3.674243 -0.166120 18.844627 -29.418796 11.039035 -12.811650 6.217226 -4.569202 -8.962781 1.636862 1.524453 7.740626 -0.702032 1.419265 19.862409 -4.386957 0.290175 -41.171849 -3.762445 3.544657 -12.096626 7.949323 2.349541 21.240480 -0.787386 -1.301790 -3.095926 1.015702 35.199120 4.597019 -73.265595 -6.409490 55.167838 -3.301744 -25.103355 14.033625 2.854138 -7.419999 4.739205 -4.550629 15.295409 0.166397 0.002567 -0.010473 0.010156 0.002003 -0.010762 -0.005218 0.268192 -40.880918 -3.532089 72.943744 1.416141 63.891833 2.546256 23.843040 16.755384 -4.664784 7.984828 8.243500 6.184288 -15.988868 -0.374707 -0.028455 -0.040936 0.027051 -0.010007 0.000330 0.008940 
22.685974 0.986138 -2.112728 -1.981475 80.759879 0.636526 -1.615163 23.439065 1.636918 -16.720430 0.518940 -12.853986 0.392851 1.832982 21.722492 24.860287 -7.576104 -4.344992 -5.907068 1.415903 -8.154375 -2.371563 -25.514431 1.250974 24.085597 -0.779371 -6.667416 -3.669136 -0.163547 18.834639 -29.417931 11.027751 -12.803392 6.211442 -4.565951 -8.957748 1.638062 1.520551 7.725347 -0.727166 1.413777 19.861742 -4.371644 0.313708 -41.166626 -3.763646 3.573037 -12.097553 7.970559 2.373401 21.238297 -0.780914 -1.301662 -3.096827 1.019055 35.194960 4.598579 -73.277093 -6.406020 55.171711 -3.296532 -25.094885 14.040119 2.844058 -7.438318 4.732936 -4.554580 15.292728 0.166334 0.002558 -0.010447 0.010156 0.002008 -0.010752 -0.005204 0.284882 -40.881309 -3.525102 72.926003 1.429521 63.871165 2.531208 23.842204 16.750680 -4.675259 7.971077 8.249172 6.177037 -15.988893 -0.374438 -0.028455 -0.040948 0.027067 -0.010012 0.000320 0.008933 
22.685964 0.986752 -2.112829 -1.552161 80.647346 1.061744 -1.582918 23.526264 1.684568 -16.840541 0.660602 -12.638828 0.404858 1.797469 21.442720 24.872024 -7.620433 -4.842637 -5.837885 1.342902 -8.082832 -2.516698 -25.422943 1.315177 24.083973 -0.578354 -6.582526 -3.607638 -0.080981 18.725497 -29.504386 11.008121 -12.783958 6.162221 -4.537650 -8.912315 1.677863 1.355433 7.550523 -1.053587 1.233069 19.955494 -4.202339 0.513179 -41.279027 -3.694695 3.380088 -12.067644 7.984695 2.207677 21.249190 -0.791939 -1.374455 -3.088611 1.029594 35.573751 4.623852 -73.298503 -6.314314 55.131101 -3.306476 -24.801987 14.142483 2.763711 -7.597994 4.730671 -4.553236 15.298367 0.167168 0.002358 -0.010222 0.010219 0.002307 -0.010885 -0.005149 0.435478 -40.814669 -3.461180 72.875120 1.618438 63.916254 2.353480 23.553118 16.867549 -4.794770 7.803595 8.398619 6.170536 -16.009839 -0.374246 -0.028635 -0.040759 0.027447 -0.010041 -0.000029 0.009172 
22.685937 0.987308 -2.112958 -1.540364 80.642489 1.063196 -1.491651 23.564063 1.669968 -16.946954 0.832304 -12.361205 0.385949 1.791186 21.196092 24.885680 -7.675806 -5.304542 -5.774923 1.270149 -8.007279 -2.620195 -25.358024 1.466902 24.099481 -0.307247 -6.545018 -3.517266 -0.000380 18.588081 -29.552805 10.901732 -12.712780 6.083050 -4.490390 -8.860378 1.807686 1.315128 7.356616 -1.310240 1.165697 20.021847 -4.179382 0.687131 -41.338573 -3.751407 3.792742 -12.043058 8.208021 2.578262 21.238201 -0.705095 -1.290678 -3.115257 1.007514 35.566910 4.721396 -73.335467 -6.290626 55.167767 -3.223181 -24.488455 14.219344 2.697732 -7.734365 4.725637 -4.575392 15.309188 0.163597 0.002100 -0.009955 0.010244 0.002422 -0.010821 -0.005046 0.615491 -40.994110 -3.466855 72.768994 1.703872 63.852072 2.167293 23.355294 16.956578 -4.894985 7.667178 8.506572 6.140269 -16.029832 -0.374090 -0.028623 -0.040794 0.027753 -0.010036 -0.000267 0.009339 
